<?xml version="1.0" encoding="UTF-8"?>
<svg id="Livello_2" data-name="Livello 2" xmlns="http://www.w3.org/2000/svg" viewBox="0 0 3000 3000">
  <defs>
    <style>
      .cls-1 {
        fill: #fff;
      }

      .cls-2 {
        fill: #fea132;
      }

      .cls-3 {
        fill: #333;
      }
    </style>
  </defs>
  <g id="Layer_1" data-name="Layer 1">
    <g>
      <g>
        <rect class="cls-1" width="3000" height="3000"/>
        <g>
          <rect class="cls-2" x="2452.14" y="162.15" width="172.39" height="172.39"/>
          <polygon class="cls-2" points="354.82 188.6 219.11 423.66 490.53 423.66 354.82 188.6"/>
          <circle class="cls-2" cx="2679.02" cy="2715.93" r="95.04" transform="translate(-1135.79 2689.83) rotate(-45)"/>
          <g>
            <rect class="cls-3" x="137.66" y="1830.25" width="81.75" height="31" transform="translate(-1252.85 666.85) rotate(-45)"/>
            <rect class="cls-3" x="244.28" y="1723.63" width="81.75" height="31" transform="translate(-1146.23 711.02) rotate(-45)"/>
            <rect class="cls-3" x="269.66" y="1804.88" width="31" height="81.75" transform="translate(-1221.63 742.25) rotate(-45)"/>
            <rect class="cls-3" x="163.04" y="1698.26" width="31" height="81.75" transform="translate(-1177.46 635.63) rotate(-45)"/>
          </g>
          <g>
            <rect class="cls-3" x="2668.73" y="1379.38" width="81.75" height="31" transform="translate(-192.69 2324.56) rotate(-45)"/>
            <rect class="cls-3" x="2775.35" y="1272.76" width="81.75" height="31" transform="translate(-86.07 2368.72) rotate(-45)"/>
            <rect class="cls-3" x="2800.72" y="1354" width="31" height="81.75" transform="translate(-161.47 2399.92) rotate(-45)"/>
            <rect class="cls-3" x="2694.1" y="1247.38" width="31" height="81.75" transform="translate(-117.31 2293.3) rotate(-45)"/>
          </g>
          <g>
            <rect class="cls-3" x="1297.52" y="228.28" width="81.75" height="31" transform="translate(219.63 1017.79) rotate(-45)"/>
            <rect class="cls-3" x="1404.14" y="121.66" width="81.75" height="31" transform="translate(326.25 1061.95) rotate(-45)"/>
            <rect class="cls-3" x="1429.52" y="202.9" width="31" height="81.75" transform="translate(250.86 1093.18) rotate(-45)"/>
            <rect class="cls-3" x="1322.9" y="96.28" width="31" height="81.75" transform="translate(295.03 986.57) rotate(-45)"/>
          </g>
          <rect class="cls-3" x="754.69" y="2685.98" width="31" height="202.2"/>
          <rect class="cls-3" x="669.09" y="2771.58" width="202.2" height="31"/>
          <path class="cls-3" d="m2685.53,290.04h-172.39c-8.56,0-15.5-6.94-15.5-15.5V102.15c0-8.56,6.94-15.5,15.5-15.5h172.39c8.56,0,15.5,6.94,15.5,15.5v172.39c0,8.56-6.94,15.5-15.5,15.5Zm-156.89-31h141.39V117.65h-141.39v141.39Z"/>
          <path class="cls-3" d="m551.53,379.16h-271.43c-5.54,0-10.65-2.95-13.42-7.75-2.77-4.8-2.77-10.7,0-15.5l135.71-235.07c2.77-4.8,7.89-7.75,13.42-7.75s10.65,2.95,13.42,7.75l135.71,235.07c2.77,4.8,2.77,10.7,0,15.5-2.77,4.8-7.89,7.75-13.42,7.75Zm-244.58-31h217.74l-108.87-188.57-108.87,188.57Z"/>
          <path class="cls-3" d="m2740.02,2766.47c-60.95,0-110.54-49.59-110.54-110.54s49.59-110.54,110.54-110.54,110.54,49.59,110.54,110.54-49.59,110.54-110.54,110.54Zm0-190.08c-43.86,0-79.54,35.68-79.54,79.54s35.68,79.54,79.54,79.54,79.54-35.68,79.54-79.54-35.68-79.54-79.54-79.54Z"/>
        </g>
      </g>
      <g>
        <path class="cls-2" d="m2204.66,972.06l-1.55-13.6-6.55-57.53-.55-4.85-3.03-26.63-29.13-256.23-132.77,113.99-12.13,10.41c-3.53-2.45-7.06-4.87-10.57-7.24-.89-.6-1.79-1.21-2.69-1.8-50.97-34.2-105.37-63.6-161.72-87.44-58.45-24.71-119.6-43.69-181.74-56.41-63.74-13.04-129.33-19.66-194.94-19.66s-131.21,6.62-194.95,19.66c-62.12,12.71-123.27,31.69-181.74,56.41-57.36,24.27-112.67,54.29-164.41,89.24-51.25,34.63-99.41,74.37-143.16,118.12-43.78,43.78-83.52,91.95-118.11,143.16-34.95,51.72-64.97,107.03-89.24,164.4-24.7,58.41-43.68,119.55-56.42,181.74-13.04,63.77-19.65,129.36-19.65,194.95s6.61,131.18,19.66,194.95c12.73,62.19,31.71,123.33,56.41,181.74,24.27,57.37,54.29,112.68,89.24,164.4,34.59,51.21,74.33,99.38,118.11,143.16,43.75,43.75,91.91,83.49,143.16,118.12,51.75,34.96,107.07,64.98,164.41,89.24,58.47,24.72,119.61,43.7,181.74,56.4,63.74,13.05,129.33,19.67,194.95,19.67,52.04,0,104.4-4.19,155.64-12.47l33.82-5.48-34.07-140.74-28.81,4.46c-41.61,6.45-84.19,9.72-126.58,9.72-453.9,0-823.18-369.27-823.18-823.17s369.28-823.17,823.18-823.17c149.62,0,295.23,40.59,423.42,117.72,4.64,2.79,9.26,5.63,13.86,8.53l-12.31,10.57-124.59,106.97,448.71,121.81-9.96-87.6-1.76-15.52Z"/>
        <circle class="cls-2" cx="2305.56" cy="1217.83" r="72.08" transform="translate(-185.85 1986.97) rotate(-45)"/>
        <path class="cls-2" d="m2362.81,1465.83c-39.75,0-72.08,32.34-72.08,72.08s32.34,72.08,72.08,72.08,72.08-32.34,72.08-72.08-32.34-72.08-72.08-72.08Z"/>
        <path class="cls-2" d="m2299.03,1792.16c-39.75,0-72.08,32.33-72.08,72.08s32.34,72.08,72.08,72.08,72.08-32.33,72.08-72.08-32.34-72.08-72.08-72.08Z"/>
        <circle class="cls-2" cx="2118.68" cy="2146.56" r="72.08" transform="translate(-155.38 4127.77) rotate(-86.44)"/>
        <path class="cls-2" d="m1813.45,2286.39c-39.75,0-72.08,32.33-72.08,72.08s32.34,72.08,72.08,72.08,72.08-32.34,72.08-72.08-32.34-72.08-72.08-72.08Z"/>
        <path class="cls-2" d="m1323.69,1614.83c24.24-22.92,45.29-44.86,62.55-65.21,17.32-20.42,31.87-39.81,43.24-57.6,11.57-18.08,20.76-35.78,27.31-52.61,6.53-16.81,11.22-33.42,13.92-49.38,2.64-15.74,3.98-31.6,3.98-47.15,0-17.69-3.15-36.05-9.36-54.56-6.43-19.14-17.48-36.73-32.83-52.3-15.26-15.47-35.9-28.2-61.36-37.86-25.15-9.52-56.6-14.35-93.49-14.35-22.12,0-44.11,2.25-65.38,6.67-20.87,4.34-40.2,9.66-57.47,15.81-17.27,6.16-32.4,12.72-44.97,19.5-13.54,7.3-22.29,13.16-27.51,18.41-4.51,4.47-8.44,9.88-11.68,16.07-3.03,5.78-5.56,12.16-7.53,18.96-1.73,5.98-3.41,12.26-4.98,18.63-1.64,6.58-2.93,13.07-3.85,19.27-.9,6.01-1.54,11.63-1.91,16.73-.37,5.11-.55,9.09-.55,12.16,0,9.46,1.42,17.06,4.33,23.18,4.46,9.47,13.06,14.9,23.59,14.9,7,0,15.48-3.02,27.48-9.79,8.95-5.02,19.9-10.62,32.53-16.63,12.43-5.89,26.55-11.4,41.93-16.38,14.53-4.68,30.04-7.05,46.1-7.05,11.46,0,20.76,1.52,27.6,4.49,6.65,2.91,11.77,6.43,15.19,10.43,3.59,4.22,6.02,8.66,7.42,13.57,1.61,5.66,2.42,11.01,2.42,15.9,0,5.61-.54,12.24-1.6,19.71-1.02,7.08-3.18,15.05-6.45,23.68-3.38,8.96-8.22,19.12-14.38,30.2-6.1,11.01-14.2,23.06-24.07,35.82-10.04,12.99-22.46,27.34-36.93,42.66-14.59,15.45-31.92,32.24-51.51,49.92l-153.75,134.47c-11.16,10.1-20.35,21.26-27.31,33.17-6.8,11.62-11.94,23.3-15.29,34.72-3.25,11.06-5.45,21.33-6.54,30.5-1.08,9.01-1.61,16.21-1.61,22,0,6.33.7,11.75,2.14,16.53,1.84,6.19,5.26,11.51,10.11,15.76,4.6,4.07,10.42,6.94,17.33,8.54,5.54,1.27,12.1,1.89,20.03,1.89h374.57c8.6,0,16.39-3.4,22.56-9.86,4.26-4.49,8.05-10.14,11.28-16.81,2.87-5.96,5.38-12.63,7.46-19.82,1.93-6.67,3.63-13.26,5.04-19.62,1.45-6.54,2.48-12.85,3.06-18.77.56-5.83.82-9.91.82-12.82,0-8.96-1.68-17.1-4.98-24.18-4.89-10.51-14.6-16.54-26.64-16.54h-205.85l60.22-50.52c32.64-26.62,61.41-51.67,85.54-74.47Z"/>
        <path class="cls-2" d="m1964.01,1198.24c-7.92-2.12-18.08-3.6-31.06-4.52-12.35-.86-27.33-1.3-44.52-1.3-16.11,0-30.25.35-42.03,1.03-12.17.7-22.7,1.89-31.3,3.53-9.15,1.76-16.53,3.92-22.58,6.61-7.19,3.22-12.83,7.41-16.75,12.45l-274.92,359.31c-4.49,5.71-8.56,12.79-12.1,21.03-3.21,7.49-6.18,15.5-8.83,23.79-2.6,8.15-4.98,16.52-7.06,24.86-2.09,8.32-3.85,16.35-5.24,23.85-1.41,7.58-2.48,14.45-3.17,20.41-.75,6.39-1.12,11.25-1.12,14.88,0,12.85,2.88,22.27,8.83,28.83,6.34,6.95,15.94,10.33,29.35,10.33h229.69l-19.78,99.64c-1.42,7.13-.33,13.98,3.17,19.83,3.33,5.55,8.89,9.86,16.54,12.81,5.68,2.19,13.07,3.74,22.63,4.74,8.64.89,19.52,1.34,32.33,1.34s23.74-.45,32.72-1.34c9.59-.97,17.31-2.43,23.59-4.47,7.61-2.47,13.42-5.77,17.78-10.14,4.69-4.73,7.71-10.36,8.97-16.7l21.26-105.72h45.19c5.46,0,13.59-1.62,21.24-9.29,4.42-4.39,8.32-10.05,11.6-16.84,2.85-5.9,5.41-12.44,7.61-19.42,2.16-6.81,3.91-13.65,5.22-20.36,1.27-6.56,2.23-12.4,2.92-17.83.77-5.94,1.14-10.62,1.14-14.32,0-10.09-1.69-18.11-5.19-24.55-4.9-8.96-13.46-14.1-23.47-14.1h-38.81l75.22-374.28c1.61-8.89-1.17-17.27-7.87-23.61-4.83-4.56-11.56-7.89-21.19-10.49Zm-205.65,408.38h-125.17l168.76-219.43-43.59,219.43Z"/>
        <path class="cls-3" d="m1691.1,2301.95l-6.71-27.7-28.16,4.35-14.73,2.28c-40.83,6.33-82.62,9.54-124.21,9.54-445.36,0-807.68-362.32-807.68-807.67s362.32-807.67,807.68-807.67c145.08,0,286.33,38.9,411.02,112.86l-98.54,84.61-44.39,38.11,56.46,15.33,398.44,108.17,44.08,11.97-5.16-45.39-7.6-66.84-3.09-27.19-6.55-57.54-1.1-9.68-28.31-248.96-6.61-58.13-44.38,38.11-113.67,97.59c-.28-.19-.56-.38-.84-.57-52.58-35.52-108.78-66.02-167.04-90.66-59.39-25.12-121.53-44.4-184.68-57.32-64.75-13.26-131.39-19.98-198.04-19.98s-133.3,6.72-198.06,19.98c-63.12,12.91-125.26,32.2-184.66,57.32-58.29,24.65-114.49,55.16-167.05,90.66-52.07,35.19-101.01,75.56-145.45,120.01-44.48,44.48-84.85,93.41-120,145.45-35.5,52.54-66,108.74-90.66,167.03-25.11,59.35-44.39,121.48-57.33,184.67-13.25,64.79-19.97,131.43-19.97,198.06s6.72,133.27,19.97,198.05c12.94,63.2,32.22,125.33,57.33,184.68,24.66,58.29,55.16,114.49,90.66,167.03,35.15,52.04,75.52,100.97,120,145.45,44.44,44.45,93.38,84.82,145.44,120.01,52.59,35.52,108.79,66.02,167.05,90.66,59.41,25.12,121.55,44.41,184.68,57.32,64.75,13.26,131.39,19.98,198.05,19.98,52.87,0,106.06-4.26,158.1-12.67l17.31-2.8,33.06-5.35-7.88-32.54-26.78-110.62Zm510.65-1707.92l23.48,206.49,2.92,25.7,3.01,26.46,6.55,57.53,1.77,15.53,1.76,15.51,7.16,62.99-398.44-108.17,105.97-90.99,12.25-10.51,12.24-10.51,89.46-76.81,12.11-10.39,12.09-10.38,107.67-92.45Zm-531.3,1828.63c-50.4,8.14-101.94,12.27-153.16,12.27-64.57,0-129.12-6.51-191.84-19.35-61.16-12.51-121.32-31.19-178.81-55.5-56.44-23.87-110.86-53.41-161.77-87.8-50.4-34.06-97.8-73.16-140.88-116.24-43.07-43.07-82.18-90.47-116.23-140.88-34.39-50.9-63.93-105.33-87.8-161.76-24.32-57.49-42.99-117.65-55.51-178.81-12.83-62.73-19.34-127.27-19.34-191.84s6.51-129.11,19.34-191.84c12.52-61.16,31.19-121.32,55.51-178.81,23.87-56.43,53.41-110.86,87.8-161.76,34.05-50.41,73.16-97.81,116.23-140.88,43.08-43.08,90.48-82.18,140.88-116.24,50.91-34.39,105.34-63.93,161.77-87.8,57.49-24.31,117.65-42.99,178.81-55.5,62.72-12.84,127.27-19.35,191.84-19.35s129.11,6.51,191.83,19.35c61.16,12.51,121.33,31.19,178.81,55.5,54.15,22.9,106.44,51.02,155.55,83.64l-83.25,71.48-7.15,6.14c-130.2-79.33-280.83-122.6-435.79-122.6-462.45,0-838.68,376.22-838.68,838.67s376.23,838.67,838.68,838.67c43.18,0,86.56-3.33,128.95-9.9l14.73-2.28,26.78,110.62-17.3,2.8Z"/>
        <path class="cls-3" d="m2355.56,1255.41c48.29,0,87.58-39.29,87.58-87.58s-39.29-87.58-87.58-87.58-87.58,39.29-87.58,87.58,39.29,87.58,87.58,87.58Zm0-144.16c31.2,0,56.58,25.38,56.58,56.58s-25.38,56.58-56.58,56.58-56.58-25.38-56.58-56.58,25.38-56.58,56.58-56.58Z"/>
        <path class="cls-3" d="m2412.81,1400.33c-48.29,0-87.58,39.29-87.58,87.58s39.29,87.58,87.58,87.58,87.58-39.29,87.58-87.58-39.29-87.58-87.58-87.58Zm0,144.16c-31.2,0-56.58-25.38-56.58-56.58s25.38-56.58,56.58-56.58,56.58,25.38,56.58,56.58-25.38,56.58-56.58,56.58Z"/>
        <path class="cls-3" d="m2349.03,1726.66c-48.29,0-87.58,39.29-87.58,87.58s39.29,87.58,87.58,87.58,87.58-39.29,87.58-87.58-39.29-87.58-87.58-87.58Zm0,144.16c-31.2,0-56.58-25.38-56.58-56.58s25.38-56.58,56.58-56.58,56.58,25.38,56.58,56.58-25.38,56.58-56.58,56.58Z"/>
        <path class="cls-3" d="m2168.68,2008.98c-48.29,0-87.58,39.29-87.58,87.58s39.29,87.58,87.58,87.58,87.58-39.29,87.58-87.58-39.29-87.58-87.58-87.58Zm0,144.16c-31.2,0-56.58-25.38-56.58-56.58s25.38-56.58,56.58-56.58,56.58,25.38,56.58,56.58-25.38,56.58-56.58,56.58Z"/>
        <path class="cls-3" d="m1863.45,2220.89c-48.29,0-87.58,39.29-87.58,87.58s39.29,87.58,87.58,87.58,87.58-39.29,87.58-87.58-39.29-87.58-87.58-87.58Zm0,144.16c-31.2,0-56.58-25.38-56.58-56.58s25.38-56.58,56.58-56.58,56.58,25.38,56.58,56.58-25.38,56.58-56.58,56.58Z"/>
        <path class="cls-3" d="m1384.33,1576.1c24.66-23.31,46.1-45.67,63.73-66.45,17.77-20.96,32.74-40.91,44.49-59.29,12.11-18.92,21.77-37.54,28.69-55.33,6.92-17.79,11.88-35.42,14.75-52.39,2.79-16.62,4.21-33.35,4.21-49.76,0-19.37-3.42-39.39-10.16-59.48-7.19-21.41-19.47-41-36.49-58.26-16.83-17.06-39.34-31.02-66.9-41.47-26.92-10.2-60.22-15.36-98.99-15.36-23.17,0-46.24,2.36-68.54,7-21.55,4.48-41.57,9.99-59.5,16.37-18.03,6.43-33.88,13.31-47.13,20.46-15.09,8.14-24.69,14.65-31.11,21.09-5.63,5.58-10.5,12.27-14.47,19.86-3.51,6.68-6.43,14.04-8.68,21.85-1.78,6.16-3.51,12.63-5.14,19.22-1.75,7.02-3.14,14.01-4.13,20.73-.95,6.37-1.63,12.37-2.03,17.84-.4,5.49-.59,9.83-.59,13.29,0,11.81,1.91,21.58,5.85,29.87,7.03,14.85,21.07,23.71,37.57,23.71,9.94,0,20.43-3.52,35.07-11.77h0c8.65-4.86,19.28-10.29,31.61-16.15,11.8-5.59,25.28-10.85,40.04-15.62,12.96-4.17,26.87-6.3,41.31-6.3,11.58,0,18.04,1.74,21.42,3.21,4.39,1.92,7.71,4.1,9.6,6.29,2.1,2.48,3.51,5.01,4.29,7.75,1.21,4.28,1.83,8.19,1.83,11.64,0,4.88-.49,10.78-1.45,17.54-.85,5.93-2.73,12.79-5.59,20.35-3.12,8.28-7.64,17.74-13.42,28.15-5.74,10.36-13.4,21.74-22.78,33.87-9.73,12.59-21.82,26.55-35.94,41.5-14.29,15.13-31.29,31.61-50.54,48.98l-153.47,134.22-.19.17-.19.17c-12.34,11.16-22.54,23.56-30.3,36.86-7.42,12.69-13.07,25.54-16.78,38.17-3.54,12.06-5.85,22.87-7.06,33.06-1.15,9.59-1.72,17.4-1.72,23.81,0,7.85.92,14.73,2.81,21.02,2.66,8.88,7.76,16.82,14.77,22.97,6.54,5.75,14.6,9.77,23.97,11.94h.03s.03.02.03.02c6.7,1.54,14.39,2.29,23.51,2.29h374.57c12.75,0,24.73-5.19,33.74-14.62l.03-.03.03-.03c5.36-5.65,10.07-12.62,13.99-20.72,3.27-6.78,6.09-14.26,8.41-22.28,2.02-6.98,3.8-13.88,5.28-20.53,1.59-7.19,2.72-14.12,3.36-20.63v-.03s0-.03,0-.03c.61-6.34.89-10.88.89-14.3,0-11.24-2.16-21.58-6.43-30.74-7.42-15.95-22.63-25.48-40.69-25.48h-163.26l27.5-23.07c32.89-26.83,61.93-52.11,86.3-75.15Zm-199,129.22h248.45c6.04,0,10.24,2.53,12.59,7.58,2.35,5.04,3.53,10.92,3.53,17.64,0,2.36-.25,6.13-.75,11.34-.51,5.21-1.42,10.85-2.76,16.9-1.35,6.05-2.95,12.27-4.8,18.66-1.85,6.39-4.03,12.19-6.54,17.4-2.52,5.21-5.37,9.51-8.56,12.87-3.2,3.35-6.97,5.03-11.32,5.03h-374.57c-6.69,0-12.21-.5-16.56-1.5-4.35-1.01-7.87-2.69-10.54-5.05-2.68-2.35-4.52-5.21-5.52-8.57-1.01-3.36-1.5-7.4-1.5-12.11,0-5.04.49-11.75,1.5-20.15,1-8.41,3.01-17.73,6.02-27.99,3.01-10.26,7.61-20.68,13.8-31.26,6.18-10.58,14.29-20.42,24.33-29.5l153.65-134.38c20.09-18.12,37.58-35.08,52.49-50.87,14.9-15.78,27.54-30.39,37.92-43.82,10.38-13.42,18.84-26.02,25.36-37.78,6.53-11.75,11.64-22.49,15.32-32.24,3.68-9.73,6.11-18.72,7.29-26.95,1.17-8.22,1.76-15.52,1.76-21.91s-1.01-13.08-3.01-20.13c-2.01-7.04-5.51-13.49-10.52-19.38-5.01-5.86-11.94-10.72-20.79-14.59-8.85-3.85-20.11-5.79-33.81-5.79-17.79,0-34.74,2.61-50.85,7.8-16.11,5.21-30.72,10.92-43.81,17.12-13.09,6.22-24.25,11.93-33.49,17.12-9.24,5.21-15.86,7.8-19.89,7.8-4.48,0-7.68-2-9.57-6.01-1.91-4.02-2.85-9.53-2.85-16.57,0-2.67.17-6.35.51-11.04.34-4.68.93-9.87,1.78-15.56.84-5.69,2.02-11.63,3.56-17.82,1.53-6.19,3.14-12.22,4.83-18.07,1.69-5.86,3.81-11.2,6.36-16.06,2.54-4.85,5.51-8.94,8.91-12.3,4.02-4.06,12-9.31,23.92-15.74,11.93-6.43,26.2-12.61,42.82-18.54,16.63-5.92,35.09-11,55.42-15.23,20.31-4.23,41.06-6.35,62.22-6.35,35.19,0,64.53,4.46,88,13.35,23.47,8.9,42.07,20.31,55.82,34.25,13.75,13.94,23.47,29.39,29.17,46.35,5.69,16.96,8.55,33.5,8.55,49.62,0,14.78-1.26,29.64-3.77,44.58-2.53,14.94-6.88,30.38-13.08,46.33-6.21,15.96-14.85,32.58-25.92,49.87-11.06,17.3-25.07,35.95-42.01,55.93-16.95,19.98-37.4,41.3-61.38,63.97-23.98,22.66-52.24,47.26-84.77,73.79l-92.94,77.96Z"/>
        <path class="cls-3" d="m1651.72,1572.12h169.37l58.66-295.31h-.91l-227.12,295.31Zm143.92-31h-80.97l109.17-141.94-28.2,141.94Z"/>
        <path class="cls-3" d="m2045.87,1147.47l-.02-.02c-6.67-6.3-15.76-10.93-27.78-14.18-8.93-2.4-20.04-4.04-34.01-5.02-12.73-.89-28.07-1.34-45.63-1.34-16.4,0-30.85.35-42.93,1.05-12.85.74-24.05,2.01-33.3,3.78-10.37,1.99-18.85,4.5-25.97,7.67h-.03s-.03.02-.03.02c-9.53,4.27-17.15,10.01-22.65,17.08l-.08.1-.08.1-274.79,359.14c-5.3,6.76-10.03,14.96-14.08,24.4-3.41,7.95-6.55,16.42-9.35,25.19-2.71,8.48-5.18,17.17-7.34,25.84-2.15,8.6-3.99,16.93-5.44,24.75-1.49,8.03-2.58,15.05-3.33,21.44-.83,7.08-1.22,12.39-1.22,16.68,0,16.87,4.19,29.7,12.81,39.21l.03.03.03.03c9.31,10.21,23.04,15.39,40.81,15.39h210.81l-16.11,81.12c-2.18,10.94-.43,21.59,5.05,30.76v.02s.03.02.03.02c5.15,8.59,13.31,15.08,24.26,19.3,6.99,2.69,15.67,4.55,26.55,5.69h.04s.04,0,.04,0c9.17.94,20.58,1.42,33.92,1.42s24.76-.47,34.22-1.41h.04s.04,0,.04,0c10.7-1.08,19.46-2.77,26.79-5.14,10.01-3.25,17.83-7.79,23.93-13.88l.04-.04.04-.04c6.76-6.82,11.32-15.32,13.17-24.58l18.75-93.25h32.49c8.39,0,20.78-2.4,32.21-13.84,5.64-5.62,10.55-12.69,14.57-21.02,3.18-6.59,6.02-13.83,8.45-21.54,2.32-7.33,4.22-14.74,5.64-21.99v-.03s.01-.03.01-.03c1.33-6.88,2.34-13.03,3.08-18.8.86-6.69,1.26-11.87,1.26-16.29,0-12.74-2.31-23.18-7.05-31.91l-.02-.04-.02-.04c-7.59-13.87-21.45-22.16-37.06-22.16h-19.88l71.43-355.44.06-.28.05-.29c2.54-14.01-1.99-27.71-12.44-37.61l-.02-.02Zm-18.04,32.1l-78.89,392.55h57.73c4.38,0,7.67,2.02,9.87,6.04,2.19,4.03,3.29,9.74,3.29,17.11,0,3.04-.34,7.14-1.01,12.34-.67,5.21-1.6,10.82-2.77,16.87-1.18,6.04-2.76,12.24-4.78,18.62-2.01,6.38-4.28,12.16-6.79,17.36-2.52,5.21-5.37,9.4-8.57,12.58-3.19,3.2-6.63,4.78-10.31,4.78h-57.88l-23.76,118.16c-.67,3.37-2.27,6.31-4.78,8.84-2.52,2.52-6.38,4.63-11.56,6.31-5.19,1.68-11.99,2.94-20.37,3.79-8.38.83-18.77,1.26-31.16,1.26s-22.68-.43-30.74-1.26c-8.07-.85-14.28-2.11-18.65-3.79-4.36-1.68-7.3-3.79-8.81-6.31-1.51-2.53-1.93-5.47-1.26-8.84l23.46-118.16h-248.57c-8.74,0-14.7-1.76-17.9-5.27-3.19-3.52-4.78-9.66-4.78-18.39,0-3,.34-7.37,1.01-13.07.67-5.71,1.68-12.17,3.02-19.39,1.34-7.21,3.02-14.85,5.04-22.91,2.01-8.06,4.27-16.02,6.79-23.91,2.52-7.89,5.29-15.35,8.31-22.4,3.02-7.04,6.38-12.92,10.09-17.62l274.91-359.3c2.35-3.02,5.96-5.63,10.85-7.82,4.87-2.17,11.26-4.02,19.17-5.54,7.91-1.51,17.67-2.61,29.27-3.28,11.6-.67,25.33-1,41.14-1,17.07,0,31.54.43,43.44,1.26,11.88.84,21.26,2.19,28.12,4.03,6.86,1.85,11.72,4.1,14.57,6.79,2.84,2.69,3.93,5.88,3.26,9.57Z"/>
      </g>
    </g>
  </g>
</svg>