<?xml version="1.0" encoding="UTF-8"?>
<svg id="Livello_2" data-name="Livello 2" xmlns="http://www.w3.org/2000/svg" viewBox="0 0 3000 3000">
  <defs>
    <style>
      .cls-1 {
        fill: #fff;
      }

      .cls-2 {
        fill: #fea132;
      }

      .cls-3 {
        fill: #333;
      }
    </style>
  </defs>
  <g id="Layer_1" data-name="Layer 1">
    <g>
      <g>
        <rect class="cls-1" width="3000" height="3000"/>
        <g>
          <rect class="cls-2" x="2452.14" y="162.15" width="172.39" height="172.39"/>
          <polygon class="cls-2" points="354.82 188.6 219.11 423.66 490.53 423.66 354.82 188.6"/>
          <circle class="cls-2" cx="2679.02" cy="2715.93" r="95.04" transform="translate(-1135.79 2689.83) rotate(-45)"/>
          <rect class="cls-3" x="137.66" y="1830.25" width="81.75" height="31" transform="translate(-1252.85 666.85) rotate(-45)"/>
          <rect class="cls-3" x="244.28" y="1723.63" width="81.75" height="31" transform="translate(-1146.23 711.02) rotate(-45)"/>
          <rect class="cls-3" x="269.66" y="1804.88" width="31" height="81.75" transform="translate(-1221.63 742.25) rotate(-45)"/>
          <rect class="cls-3" x="163.04" y="1698.26" width="31" height="81.75" transform="translate(-1177.46 635.63) rotate(-45)"/>
          <rect class="cls-3" x="2668.73" y="1379.38" width="81.75" height="31" transform="translate(-192.69 2324.56) rotate(-45)"/>
          <rect class="cls-3" x="2775.35" y="1272.76" width="81.75" height="31" transform="translate(-86.07 2368.72) rotate(-45)"/>
          <rect class="cls-3" x="2800.72" y="1354" width="31" height="81.75" transform="translate(-161.47 2399.92) rotate(-45)"/>
          <rect class="cls-3" x="2694.1" y="1247.38" width="31" height="81.75" transform="translate(-117.31 2293.3) rotate(-45)"/>
          <rect class="cls-3" x="1297.52" y="228.28" width="81.75" height="31" transform="translate(219.63 1017.79) rotate(-45)"/>
          <rect class="cls-3" x="1404.14" y="121.66" width="81.75" height="31" transform="translate(326.25 1061.95) rotate(-45)"/>
          <rect class="cls-3" x="1429.52" y="202.9" width="31" height="81.75" transform="translate(250.86 1093.18) rotate(-45)"/>
          <rect class="cls-3" x="1322.9" y="96.28" width="31" height="81.75" transform="translate(295.03 986.57) rotate(-45)"/>
          <rect class="cls-3" x="754.69" y="2685.98" width="31" height="202.2"/>
          <rect class="cls-3" x="669.09" y="2771.58" width="202.2" height="31"/>
          <path class="cls-3" d="m2685.53,290.04h-172.39c-8.56,0-15.5-6.94-15.5-15.5V102.15c0-8.56,6.94-15.5,15.5-15.5h172.39c8.56,0,15.5,6.94,15.5,15.5v172.39c0,8.56-6.94,15.5-15.5,15.5Zm-156.89-31h141.39V117.65h-141.39v141.39Z"/>
          <path class="cls-3" d="m551.53,379.16h-271.43c-5.54,0-10.65-2.95-13.42-7.75-2.77-4.8-2.77-10.7,0-15.5l135.71-235.07c2.77-4.8,7.89-7.75,13.42-7.75s10.65,2.95,13.42,7.75l135.71,235.07c2.77,4.8,2.77,10.7,0,15.5-2.77,4.8-7.89,7.75-13.42,7.75Zm-244.58-31h217.74l-108.87-188.57-108.87,188.57Z"/>
          <path class="cls-3" d="m2740.02,2766.47c-60.95,0-110.54-49.59-110.54-110.54s49.59-110.54,110.54-110.54,110.54,49.59,110.54,110.54-49.59,110.54-110.54,110.54Zm0-190.08c-43.86,0-79.54,35.68-79.54,79.54s35.68,79.54,79.54,79.54,79.54-35.68,79.54-79.54-35.68-79.54-79.54-79.54Z"/>
        </g>
      </g>
      <g>
        <path class="cls-2" d="m2135.64,1481.04l-616.69-616.69c-18.19-18.19-42.03-27.29-65.88-27.29s-47.69,9.1-65.88,27.29l-616.69,616.69c-36.38,36.38-36.38,95.37,0,131.76l616.69,616.69c18.19,18.19,42.03,27.29,65.88,27.29s47.69-9.1,65.88-27.29l616.69-616.69c36.38-36.38,36.38-95.37,0-131.76Zm-740.57-510.79c15.7-15.7,36.56-24.34,58.76-24.34s43.07,8.64,58.76,24.34c15.7,15.7,24.34,36.56,24.34,58.76s-8.64,43.07-24.34,58.76c-15.7,15.7-36.56,24.34-58.76,24.34s-43.07-8.64-58.76-24.34c-15.7-15.7-24.34-36.56-24.34-58.76s8.64-43.07,24.34-58.76Zm-401.13,636.18c-15.7,15.7-36.56,24.34-58.76,24.34s-43.07-8.64-58.76-24.34c-15.7-15.7-24.34-36.56-24.34-58.76s8.64-43.07,24.34-58.76c15.7-15.7,36.56-24.34,58.76-24.34s43.07,8.64,58.76,24.34c32.4,32.4,32.4,85.12,0,117.52Zm517.15,517.15c-15.7,15.7-36.56,24.34-58.76,24.34s-43.07-8.64-58.76-24.34c-15.7-15.7-24.34-36.56-24.34-58.76s8.64-43.07,24.34-58.76c15.7-15.7,36.56-24.34,58.76-24.34s43.07,8.64,58.76,24.34c15.7,15.7,24.34,36.56,24.34,58.76s-8.64,43.07-24.34,58.76Zm254.99-502.04l-238.36,238.36c-19.91,19.91-46.42,30.88-74.63,30.88s-54.72-10.97-74.63-30.88l-238.36-238.36c-19.91-19.91-30.88-46.42-30.88-74.63,0-28.21,10.97-54.72,30.88-74.63l238.36-238.36c19.91-19.91,46.42-30.88,74.63-30.88s54.72,10.97,74.63,30.88l238.36,238.36c19.91,19.91,30.88,46.42,30.88,74.63,0,28.21-10.97,54.72-30.88,74.63Zm263.67-16.62c-15.7,15.7-36.56,24.34-58.76,24.34s-43.07-8.64-58.76-24.34c-32.4-32.4-32.4-85.12,0-117.52,15.7-15.7,36.56-24.34,58.76-24.34s43.07,8.64,58.76,24.34c32.4,32.4,32.4,85.12,0,117.52Z"/>
        <polygon class="cls-2" points="1764.3 809.62 1747.29 792.61 1874.19 665.7 1841.5 633.01 1714.6 759.92 1697.59 742.91 1569.68 870.81 1636.39 937.53 1764.3 809.62"/>
        <polygon class="cls-2" points="1733.94 1035.08 1800.66 1101.79 1928.56 973.89 1911.55 956.87 2038.46 829.97 2005.77 797.28 1878.86 924.18 1861.85 907.17 1733.94 1035.08"/>
        <polygon class="cls-2" points="2092.83 1138.15 2075.82 1121.14 2202.72 994.23 2170.03 961.54 2043.13 1088.45 2026.11 1071.44 1898.21 1199.34 1964.92 1266.06 2092.83 1138.15"/>
        <polygon class="cls-2" points="2062.47 1363.61 2129.19 1430.32 2257.09 1302.41 2240.08 1285.4 2366.99 1158.5 2334.3 1125.81 2207.39 1252.71 2190.38 1235.7 2062.47 1363.61"/>
        <polygon class="cls-2" points="1141.86 2284.22 1158.87 2301.23 1031.97 2428.14 1064.66 2460.83 1191.56 2333.92 1208.57 2350.93 1336.48 2223.03 1269.77 2156.31 1141.86 2284.22"/>
        <polygon class="cls-2" points="1172.22 2058.76 1105.5 1992.05 977.6 2119.96 994.61 2136.97 867.7 2263.87 900.39 2296.56 1027.3 2169.66 1044.31 2186.67 1172.22 2058.76"/>
        <polygon class="cls-2" points="813.33 1955.69 830.34 1972.7 703.44 2099.61 736.13 2132.3 863.03 2005.39 880.05 2022.4 1007.95 1894.5 941.24 1827.79 813.33 1955.69"/>
        <polygon class="cls-2" points="715.78 1858.14 843.69 1730.23 776.97 1663.52 649.07 1791.43 666.08 1808.44 539.17 1935.34 571.86 1968.03 698.77 1841.13 715.78 1858.14"/>
        <polygon class="cls-2" points="776.97 1430.32 843.69 1363.61 715.78 1235.7 698.77 1252.71 571.86 1125.81 539.17 1158.5 666.08 1285.4 649.07 1302.41 776.97 1430.32"/>
        <polygon class="cls-2" points="941.24 1266.06 1007.95 1199.34 880.04 1071.44 863.03 1088.45 736.13 961.54 703.44 994.23 830.34 1121.14 813.33 1138.15 941.24 1266.06"/>
        <polygon class="cls-2" points="1105.5 1101.79 1172.21 1035.08 1044.31 907.17 1027.3 924.18 900.39 797.28 867.7 829.97 994.61 956.87 977.6 973.89 1105.5 1101.79"/>
        <polygon class="cls-2" points="1269.77 937.53 1336.48 870.81 1208.57 742.91 1191.56 759.92 1064.66 633.01 1031.97 665.7 1158.87 792.61 1141.86 809.62 1269.77 937.53"/>
        <polygon class="cls-2" points="2257.09 1791.43 2129.19 1663.52 2062.47 1730.23 2190.38 1858.14 2207.39 1841.13 2334.3 1968.03 2366.99 1935.34 2240.08 1808.44 2257.09 1791.43"/>
        <polygon class="cls-2" points="1964.92 1827.78 1898.21 1894.5 2026.11 2022.4 2043.13 2005.39 2170.03 2132.3 2202.72 2099.61 2075.82 1972.7 2092.83 1955.69 1964.92 1827.78"/>
        <polygon class="cls-2" points="1800.66 1992.05 1733.94 2058.76 1861.85 2186.67 1878.86 2169.66 2005.77 2296.56 2038.46 2263.87 1911.55 2136.97 1928.56 2119.95 1800.66 1992.05"/>
        <polygon class="cls-2" points="1636.39 2156.31 1569.68 2223.03 1697.59 2350.93 1714.6 2333.92 1841.5 2460.83 1874.19 2428.14 1747.29 2301.23 1764.3 2284.22 1636.39 2156.31"/>
        <g>
          <path class="cls-3" d="m1503.83,1062.12c22.2,0,43.07-8.64,58.76-24.34,15.7-15.7,24.34-36.56,24.34-58.76s-8.64-43.07-24.34-58.76c-15.7-15.7-36.56-24.34-58.76-24.34s-43.07,8.64-58.76,24.34c-15.7,15.7-24.34,36.56-24.34,58.76s8.64,43.07,24.34,58.76c15.7,15.7,36.56,24.34,58.76,24.34Zm-36.84-119.94c10.17-10.17,23.51-15.26,36.84-15.26s26.67,5.09,36.84,15.26c20.35,20.35,20.35,53.34,0,73.68-10.17,10.17-23.51,15.26-36.84,15.26s-26.67-5.09-36.84-15.26c-20.35-20.35-20.35-53.34,0-73.68Z"/>
          <path class="cls-3" d="m985.18,1414.57c-22.2,0-43.07,8.64-58.76,24.34-15.7,15.7-24.34,36.56-24.34,58.76s8.64,43.07,24.34,58.76c15.7,15.7,36.56,24.34,58.76,24.34s43.07-8.64,58.76-24.34c32.4-32.4,32.4-85.12,0-117.52-15.7-15.7-36.56-24.34-58.76-24.34Zm36.84,119.94c-10.17,10.17-23.51,15.26-36.84,15.26s-26.67-5.09-36.84-15.26c-20.35-20.35-20.35-53.34,0-73.68,10.17-10.17,23.51-15.26,36.84-15.26s26.67,5.09,36.84,15.26c20.35,20.35,20.35,53.34,0,73.68Z"/>
          <path class="cls-3" d="m1502.33,1931.72c-22.2,0-43.07,8.64-58.76,24.34-15.7,15.7-24.34,36.56-24.34,58.76s8.64,43.07,24.34,58.76c15.7,15.7,36.56,24.34,58.76,24.34s43.07-8.64,58.76-24.34c15.7-15.7,24.34-36.56,24.34-58.76s-8.64-43.07-24.34-58.76c-15.7-15.7-36.56-24.34-58.76-24.34Zm36.84,119.94c-10.17,10.17-23.51,15.26-36.84,15.26s-26.67-5.09-36.84-15.26c-20.35-20.35-20.35-53.34,0-73.68,10.17-10.17,23.51-15.26,36.84-15.26s26.67,5.09,36.84,15.26c20.35,20.35,20.35,53.34,0,73.68Z"/>
          <path class="cls-3" d="m1577.71,1183.93c-19.91-19.91-46.42-30.88-74.63-30.88s-54.72,10.97-74.63,30.88l-238.36,238.36c-19.91,19.91-30.88,46.42-30.88,74.63,0,28.21,10.97,54.72,30.88,74.63l238.36,238.36c19.91,19.91,46.42,30.88,74.63,30.88s54.72-10.97,74.63-30.88l238.36-238.36c19.91-19.91,30.88-46.42,30.88-74.63,0-28.21-10.97-54.72-30.88-74.63l-238.36-238.36Zm216.44,365.7l-238.36,238.36c-14.53,14.53-33.62,21.8-52.71,21.8s-38.18-7.27-52.71-21.8l-238.36-238.36c-29.06-29.06-29.06-76.36,0-105.42l238.36-238.36c14.53-14.53,33.62-21.8,52.71-21.8s38.18,7.27,52.71,21.8l238.36,238.36c29.06,29.06,29.06,76.36,0,105.42Z"/>
          <path class="cls-3" d="m2020.98,1413.06c-22.2,0-43.07,8.64-58.76,24.34-32.4,32.4-32.4,85.12,0,117.52,15.7,15.7,36.56,24.34,58.76,24.34s43.07-8.64,58.76-24.34c32.4-32.4,32.4-85.12,0-117.52-15.7-15.7-36.56-24.34-58.76-24.34Zm36.84,119.94c-10.17,10.17-23.51,15.26-36.84,15.26s-26.67-5.09-36.84-15.26c-20.35-20.35-20.35-53.34,0-73.68,10.17-10.17,23.51-15.26,36.84-15.26s26.67,5.09,36.84,15.26c20.35,20.35,20.35,53.34,0,73.68Z"/>
          <path class="cls-3" d="m2333.92,1758.44l17.01-17.01-21.92-21.92-127.91-127.91-.21-.21,6.67-6.67c23.45-23.45,36.37-54.63,36.37-87.8s-12.92-64.35-36.37-87.8l-6.67-6.67.21-.21,127.91-127.91,21.92-21.92-17.01-17.01,104.99-104.99,21.92-21.92-21.92-21.92-32.69-32.69-21.92-21.92-21.92,21.92-104.99,104.99-17.01-17.01-21.92,21.92-127.91,127.91-.21.21-53.71-53.71.21-.21,127.91-127.91,21.92-21.92-17.01-17.01,104.99-104.99,21.92-21.92-21.92-21.92-32.69-32.69-21.92-21.92-21.92,21.92-104.99,104.99-17.01-17.01-21.92,21.92-127.91,127.91-.21.21-53.71-53.71.21-.21,127.91-127.91,21.92-21.92-17.01-17.01,104.99-104.99,21.92-21.92-21.92-21.92-32.69-32.69-21.92-21.92-21.92,21.92-104.99,104.99-17.01-17.01-21.92,21.92-127.91,127.91-.21.21-53.71-53.71.21-.21,127.91-127.91,21.92-21.92-17.01-17.01,104.99-104.99,21.92-21.92-21.92-21.92-32.69-32.69-21.92-21.92-21.92,21.92-104.99,104.99-17.01-17.01-21.92,21.92-127.91,127.91-.21.21-6.67-6.67c-23.45-23.45-54.63-36.37-87.8-36.37s-64.35,12.92-87.8,36.37l-6.67,6.67-.21-.21-127.91-127.91-21.92-21.92-17.01,17.01-104.99-104.99-21.92-21.92-21.92,21.92-32.69,32.69-21.92,21.92,21.92,21.92,104.99,104.99-17.01,17.01,21.92,21.92,127.91,127.91.21.21-53.71,53.71-.21-.21-127.91-127.91-21.92-21.92-17.01,17.01-104.99-104.99-21.92-21.92-21.92,21.92-32.69,32.69-21.92,21.92,21.92,21.92,104.99,104.99-17.01,17.01,21.92,21.92,127.91,127.91.21.21-53.71,53.71-.21-.21-127.91-127.91-21.92-21.92-17.01,17.01-104.99-104.99-21.92-21.92-21.92,21.92-32.69,32.69-21.92,21.92,21.92,21.92,104.99,104.99-17.01,17.01,21.92,21.92,127.91,127.91.21.21-53.71,53.71-.21-.21-127.91-127.91-21.92-21.92-17.01,17.01-104.99-104.99-21.92-21.92-21.92,21.92-32.69,32.69-21.92,21.92,21.92,21.92,104.99,104.99-17.01,17.01,21.92,21.92,127.91,127.91.21.21-6.67,6.67c-23.45,23.45-36.37,54.63-36.37,87.8s12.92,64.35,36.37,87.8l6.67,6.67-.21.21-127.91,127.91-21.92,21.92,17.01,17.01-104.99,104.99-21.92,21.92,21.92,21.92,32.69,32.69,21.92,21.92,21.92-21.92,104.99-104.99,17.01,17.01,21.92-21.92,127.91-127.91.21-.21,53.71,53.71-.21.21-127.91,127.91-21.92,21.92,17.01,17.01-104.99,104.99-21.92,21.92,21.92,21.92,32.69,32.69,21.92,21.92,21.92-21.92,104.99-104.99,17.01,17.01,21.92-21.92,127.91-127.91.21-.21,53.71,53.71-.21.21-127.91,127.91-21.92,21.92,17.01,17.01-104.99,104.99-21.92,21.92,21.92,21.92,32.69,32.69,21.92,21.92,21.92-21.92,104.99-104.99,17.01,17.01,21.92-21.92,127.91-127.91.21-.21,53.71,53.71-.21.21-127.91,127.91-21.92,21.92,17.01,17.01-104.99,104.99-21.92,21.92,21.92,21.92,32.69,32.69,21.92,21.92,21.92-21.92,104.99-104.99,17.01,17.01,21.92-21.92,127.91-127.91.21-.21,6.67,6.67c23.45,23.45,54.63,36.37,87.8,36.37s64.35-12.92,87.8-36.37l6.67-6.67.21.21,127.91,127.91,21.92,21.92,17.01-17.01,104.99,104.99,21.92,21.92,21.92-21.92,32.69-32.69,21.92-21.92-21.92-21.92-104.99-104.99,17.01-17.01-21.92-21.92-127.91-127.91-.21-.21,53.71-53.71.21.21,127.91,127.91,21.92,21.92,17.01-17.01,104.99,104.99,21.92,21.92,21.92-21.92,32.69-32.69,21.92-21.92-21.92-21.92-104.99-104.99,17.01-17.01-21.92-21.92-127.91-127.91-.21-.21,53.71-53.71.21.21,127.91,127.91,21.92,21.92,17.01-17.01,104.99,104.99,21.92,21.92,21.92-21.92,32.69-32.69,21.92-21.92-21.92-21.92-104.99-104.99,17.01-17.01-21.92-21.92-127.91-127.91-.21-.21,53.71-53.71.21.21,127.91,127.91,21.92,21.92,17.01-17.01,104.99,104.99,21.92,21.92,21.92-21.92,32.69-32.69,21.92-21.92-21.92-21.92-104.99-104.99Zm-93.54-572.74l17.01,17.01,126.91-126.91,32.69,32.69-126.91,126.91,17.01,17.01-127.91,127.91-66.71-66.71,127.91-127.91Zm-164.26-164.26l17.01,17.01,126.91-126.91,32.69,32.69-126.91,126.91,17.01,17.01-127.91,127.91-66.71-66.71,127.91-127.91Zm-164.26-164.26l17.01,17.01,126.91-126.91,32.69,32.69-126.91,126.91,17.01,17.01-127.91,127.91-66.71-66.71,127.91-127.91Zm-164.26-164.26l17.01,17.01,126.91-126.91,32.69,32.69-126.91,126.91,17.01,17.01-127.91,127.91-66.71-66.71,127.91-127.91Zm-555.73,66.71l17.01-17.01-126.91-126.91,32.69-32.69,126.91,126.91,17.01-17.01,127.91,127.91-66.71,66.71-127.91-127.91Zm-164.26,164.26l17.01-17.01-126.91-126.91,32.69-32.69,126.91,126.91,17.01-17.01,127.91,127.91-66.71,66.71-127.91-127.91Zm-164.26,164.26l17.01-17.01-126.91-126.91,32.69-32.69,126.91,126.91,17.01-17.01,127.91,127.91-66.71,66.71-127.91-127.91Zm-164.26,164.26l17.01-17.01-126.91-126.91,32.69-32.69,126.91,126.91,17.01-17.01,127.91,127.91-66.71,66.71-127.91-127.91Zm66.71,555.73l-17.01-17.01-126.91,126.91-32.69-32.69,126.91-126.91-17.01-17.01,127.91-127.91,66.71,66.71-127.91,127.91Zm164.26,164.26l-17.01-17.01-126.91,126.91-32.69-32.69,126.91-126.91-17.01-17.01,127.91-127.91,66.71,66.71-127.91,127.91Zm164.26,164.26l-17.01-17.01-126.91,126.91-32.69-32.69,126.91-126.91-17.01-17.01,127.91-127.91,66.71,66.71-127.91,127.91Zm164.26,164.26l-17.01-17.01-126.91,126.91-32.69-32.69,126.91-126.91-17.01-17.01,127.91-127.91,66.71,66.71-127.91,127.91Zm555.73-66.71l-17.01,17.01,126.91,126.91-32.69,32.69-126.91-126.91-17.01,17.01-127.91-127.91,66.71-66.71,127.91,127.91Zm164.26-164.26l-17.01,17.01,126.91,126.91-32.69,32.69-126.91-126.91-17.01,17.01-127.91-127.91,66.71-66.71,127.91,127.91Zm164.26-164.26l-17.01,17.01,126.91,126.91-32.69,32.69-126.91-126.91-17.01,17.01-127.91-127.91,66.71-66.71,127.91,127.91Zm-573.87,273.79c-18.19,18.19-42.03,27.29-65.88,27.29s-47.69-9.1-65.88-27.29l-616.69-616.69c-36.38-36.38-36.38-95.37,0-131.76l616.69-616.69c18.19-18.19,42.03-27.29,65.88-27.29s47.69,9.1,65.88,27.29l616.69,616.69c36.38,36.38,36.38,95.37,0,131.76l-616.69,616.69Zm815.34-261.45l-126.91-126.91-17.01,17.01-127.91-127.91,66.71-66.71,127.91,127.91-17.01,17.01,126.91,126.91-32.69,32.69Z"/>
        </g>
      </g>
    </g>
  </g>
</svg>