<?xml version="1.0" encoding="UTF-8"?>
<svg id="Livello_2" data-name="Livello 2" xmlns="http://www.w3.org/2000/svg" viewBox="0 0 3000 3000">
  <defs>
    <style>
      .cls-1 {
        fill: #fff;
      }

      .cls-2 {
        fill: #fea132;
      }

      .cls-3 {
        fill: #333;
      }
    </style>
  </defs>
  <g id="Layer_1" data-name="Layer 1">
    <g>
      <g>
        <rect class="cls-1" width="3000" height="3000"/>
        <g>
          <rect class="cls-2" x="2452.14" y="162.15" width="172.39" height="172.39"/>
          <polygon class="cls-2" points="354.82 188.6 219.11 423.66 490.53 423.66 354.82 188.6"/>
          <circle class="cls-2" cx="2679.02" cy="2715.93" r="95.04" transform="translate(-1135.79 2689.83) rotate(-45)"/>
          <g>
            <rect class="cls-3" x="137.66" y="1830.25" width="81.75" height="31" transform="translate(-1252.85 666.85) rotate(-45)"/>
            <rect class="cls-3" x="244.28" y="1723.63" width="81.75" height="31" transform="translate(-1146.23 711.02) rotate(-45)"/>
            <rect class="cls-3" x="269.66" y="1804.88" width="31" height="81.75" transform="translate(-1221.63 742.25) rotate(-45)"/>
            <rect class="cls-3" x="163.04" y="1698.26" width="31" height="81.75" transform="translate(-1177.46 635.63) rotate(-45)"/>
          </g>
          <g>
            <rect class="cls-3" x="2668.73" y="1379.38" width="81.75" height="31" transform="translate(-192.69 2324.56) rotate(-45)"/>
            <rect class="cls-3" x="2775.35" y="1272.76" width="81.75" height="31" transform="translate(-86.07 2368.72) rotate(-45)"/>
            <rect class="cls-3" x="2800.72" y="1354" width="31" height="81.75" transform="translate(-161.47 2399.92) rotate(-45)"/>
            <rect class="cls-3" x="2694.1" y="1247.38" width="31" height="81.75" transform="translate(-117.31 2293.3) rotate(-45)"/>
          </g>
          <g>
            <rect class="cls-3" x="1297.52" y="228.28" width="81.75" height="31" transform="translate(219.63 1017.79) rotate(-45)"/>
            <rect class="cls-3" x="1404.14" y="121.66" width="81.75" height="31" transform="translate(326.25 1061.95) rotate(-45)"/>
            <rect class="cls-3" x="1429.52" y="202.9" width="31" height="81.75" transform="translate(250.86 1093.18) rotate(-45)"/>
            <rect class="cls-3" x="1322.9" y="96.28" width="31" height="81.75" transform="translate(295.03 986.57) rotate(-45)"/>
          </g>
          <rect class="cls-3" x="754.69" y="2685.98" width="31" height="202.2"/>
          <rect class="cls-3" x="669.09" y="2771.58" width="202.2" height="31"/>
          <path class="cls-3" d="m2685.53,290.04h-172.39c-8.56,0-15.5-6.94-15.5-15.5V102.15c0-8.56,6.94-15.5,15.5-15.5h172.39c8.56,0,15.5,6.94,15.5,15.5v172.39c0,8.56-6.94,15.5-15.5,15.5Zm-156.89-31h141.39V117.65h-141.39v141.39Z"/>
          <path class="cls-3" d="m551.53,379.16h-271.43c-5.54,0-10.65-2.95-13.42-7.75-2.77-4.8-2.77-10.7,0-15.5l135.71-235.07c2.77-4.8,7.89-7.75,13.42-7.75s10.65,2.95,13.42,7.75l135.71,235.07c2.77,4.8,2.77,10.7,0,15.5-2.77,4.8-7.89,7.75-13.42,7.75Zm-244.58-31h217.74l-108.87-188.57-108.87,188.57Z"/>
          <path class="cls-3" d="m2740.02,2766.47c-60.95,0-110.54-49.59-110.54-110.54s49.59-110.54,110.54-110.54,110.54,49.59,110.54,110.54-49.59,110.54-110.54,110.54Zm0-190.08c-43.86,0-79.54,35.68-79.54,79.54s35.68,79.54,79.54,79.54,79.54-35.68,79.54-79.54-35.68-79.54-79.54-79.54Z"/>
        </g>
      </g>
      <g>
        <polygon class="cls-2" points="647.22 1354.63 1097 1354.63 1097 904.84 1770.95 904.84 1910.81 764.99 1097 764.99 984.03 764.99 844.17 904.84 647.22 1101.8 507.36 1241.66 507.36 1354.63 507.36 2354.91 2097.28 2354.91 2097.28 1502.39 1957.42 1642.25 1957.42 2215.05 647.22 2215.05 647.22 1354.63"/>
        <path class="cls-2" d="m2348.74,788.99h0c-41.92-41.92-96.88-62.9-151.84-62.9-43.21,0-86.41,12.96-123.31,38.89-21.83,15.35,35.38-39.92-828.61,824.06l-89.25,349.19c-5.98,23.4,12.12,44.92,34.7,44.92,2.96,0,6-.37,9.07-1.15l349.19-89.25c88.05-88.05,722.8-722.79,800.06-800.06,83.87-83.87,83.86-219.84,0-303.7Z"/>
        <g>
          <path class="cls-3" d="m1985.5,1570.33l-9.08,9.08v554.64H728.22v-798.42h449.78v-449.78h655.79l9.08-9.08,139.86-139.86,52.92-52.92h-1014.46l-9.08,9.08-139.86,139.86-196.96,196.96-139.86,139.86-9.08,9.08v1157.09h1651.92v-958.36l-52.92,52.92-139.86,139.86Zm161.78,734.58H557.36v-1113.25l139.86-139.86,196.96-196.96,139.86-139.86h926.78l-139.86,139.86h-673.95v449.78h-449.78v860.42h1310.2v-572.8l139.86-139.86v852.52Z"/>
          <path class="cls-3" d="m2474.64,798.38c-12.37-30.5-30.53-57.86-53.98-81.31-23.45-23.45-50.8-41.61-81.3-53.98-29.45-11.95-60.56-18-92.46-18-24.9,0-49.54,3.74-73.24,11.12-24.27,7.56-47.11,18.8-67.9,33.41-.81.57-1.45.99-2.26,1.52-8.68,5.68-13.19,9.3-58.15,53.8-44.8,44.34-131.68,131.27-304.75,304.47-112.11,112.19-265.64,265.83-467.54,467.73l-6.01,6.01-2.1,8.23-89.25,349.19c-5.16,20.19-.81,41.19,11.94,57.6,12.83,16.52,32.07,25.99,52.8,25.99,5.61,0,11.24-.71,16.74-2.12l349.19-89.25,8.23-2.1,6.01-6.01,800.06-800.06c23.45-23.45,41.61-50.81,53.98-81.31,11.94-29.45,18-60.56,18-92.46,0-31.9-6.06-63.01-18-92.46Zm-875.96,1044.37l-349.19,89.25c-3.07.78-6.11,1.15-9.07,1.15-22.57,0-40.68-21.52-34.7-44.92l89.25-349.19c863.98-863.98,806.77-808.72,828.61-824.06,36.9-25.94,80.1-38.89,123.31-38.89,54.96,0,109.92,20.98,151.84,62.9h0c83.87,83.87,83.87,219.84,0,303.7-77.27,77.27-712.01,712.01-800.06,800.06Z"/>
        </g>
      </g>
    </g>
  </g>
</svg>