<?xml version="1.0" encoding="UTF-8"?>
<svg id="Livello_2" data-name="Livello 2" xmlns="http://www.w3.org/2000/svg" viewBox="0 0 1000 1000">
  <defs>
    <style>
      .cls-1 {
        fill: #fff;
      }

      .cls-2 {
        fill: #fea132;
      }

      .cls-3 {
        fill: #333;
      }
    </style>
  </defs>
  <g id="Layer_1" data-name="Layer 1">
    <g>
      <g>
        <rect class="cls-1" width="1000" height="1000"/>
        <g>
          <rect class="cls-2" x="817.38" y="54.05" width="57.46" height="57.46"/>
          <polygon class="cls-2" points="118.27 62.86 73.03 141.22 163.51 141.22 118.27 62.86"/>
          <circle class="cls-2" cx="893.01" cy="905.31" r="31.68" transform="translate(-143.66 1641.77) rotate(-80.78)"/>
          <g>
            <rect class="cls-3" x="45.89" y="610.08" width="27.25" height="10.33" transform="translate(-417.61 222.28) rotate(-45)"/>
            <rect class="cls-3" x="81.43" y="574.54" width="27.25" height="10.33" transform="translate(-382.08 237.01) rotate(-45)"/>
            <rect class="cls-3" x="89.89" y="601.63" width="10.33" height="27.25" transform="translate(-407.21 247.42) rotate(-45)"/>
            <rect class="cls-3" x="54.35" y="566.09" width="10.33" height="27.25" transform="translate(-392.49 211.88) rotate(-45)"/>
          </g>
          <g>
            <rect class="cls-3" x="889.58" y="459.79" width="27.25" height="10.33" transform="translate(-64.23 774.85) rotate(-45)"/>
            <rect class="cls-3" x="925.12" y="424.25" width="27.25" height="10.33" transform="translate(-28.69 789.58) rotate(-45)"/>
            <rect class="cls-3" x="933.57" y="451.33" width="10.33" height="27.25" transform="translate(-53.82 799.97) rotate(-45)"/>
            <rect class="cls-3" x="898.03" y="415.79" width="10.33" height="27.25" transform="translate(-39.1 764.43) rotate(-45)"/>
          </g>
          <g>
            <rect class="cls-3" x="432.51" y="76.09" width="27.25" height="10.33" transform="translate(73.21 339.26) rotate(-45)"/>
            <rect class="cls-3" x="468.05" y="40.55" width="27.25" height="10.33" transform="translate(108.75 353.98) rotate(-45)"/>
            <rect class="cls-3" x="476.51" y="67.63" width="10.33" height="27.25" transform="translate(83.62 364.39) rotate(-45)"/>
            <rect class="cls-3" x="440.97" y="32.09" width="10.33" height="27.25" transform="translate(98.34 328.86) rotate(-45)"/>
          </g>
          <rect class="cls-3" x="251.56" y="895.33" width="10.33" height="67.4"/>
          <rect class="cls-3" x="223.03" y="923.86" width="67.4" height="10.33"/>
          <path class="cls-3" d="m895.18,96.68h-57.46c-2.85,0-5.17-2.31-5.17-5.17v-57.46c0-2.85,2.31-5.17,5.17-5.17h57.46c2.85,0,5.17,2.31,5.17,5.17v57.46c0,2.85-2.31,5.17-5.17,5.17Zm-52.3-10.33h47.13v-47.13h-47.13v47.13Z"/>
          <path class="cls-3" d="m183.84,126.39h-90.48c-1.85,0-3.55-.98-4.47-2.58-.92-1.6-.92-3.57,0-5.17l45.24-78.36c.92-1.6,2.63-2.58,4.47-2.58s3.55.98,4.47,2.58l45.24,78.36c.92,1.6.92,3.57,0,5.17-.92,1.6-2.63,2.58-4.47,2.58Zm-81.53-10.33h72.58l-36.29-62.85-36.29,62.85Z"/>
          <path class="cls-3" d="m913.34,922.16c-20.32,0-36.85-16.53-36.85-36.85s16.53-36.85,36.85-36.85,36.85,16.53,36.85,36.85-16.53,36.85-36.85,36.85Zm0-63.36c-14.62,0-26.51,11.89-26.51,26.51s11.89,26.51,26.51,26.51,26.51-11.89,26.51-26.51-11.89-26.51-26.51-26.51Z"/>
        </g>
      </g>
      <g>
        <g>
          <polygon class="cls-2" points="169.12 225.58 214.01 289.12 227.44 275.68 408.93 457.17 428.6 437.49 247.12 256.01 260.55 242.57 197.02 197.68 169.12 225.58"/>
          <path class="cls-2" d="m443.22,437.49l-3.65,3.65-26.98,26.98-3.65,3.65-49.63,49.63c-3.53,3.53-5.29,8.15-5.29,12.77s1.76,9.24,5.29,12.77l26.02,26.02c7.05,7.05,17.72,9.25,26.85,5.25,15.4-6.75,34.02-3.83,46.62,8.78l26.58,26.58c9.25,9.25,13.87,21.37,13.87,33.49,0,5.04-.8,10.07-2.4,14.91-1.31,3.96-1.94,8.02-1.94,12.06,0,10.13,4,20.06,11.4,27.46l130.56,107.19c36.67,32.96,92.71,31.46,127.57-3.4l12.28-12.28c18.06-18.06,27.16-41.8,27.16-65.59,0-22.13-7.88-44.31-23.77-61.98l-107.19-130.56c-10.34-10.34-25.63-14.05-39.52-9.46-16.46,5.44-35.3,1.61-48.4-11.48l-26.58-26.58c-8.21-8.21-12.31-18.97-12.31-29.72,0-5.76,1.18-11.53,3.53-16.9,1.34-3.06,1.99-6.29,1.99-9.5,0-6.38-2.55-12.67-7.24-17.36l-26.02-26.02c-7.05-7.05-18.48-7.05-25.54,0l-49.63,49.63Z"/>
        </g>
        <path class="cls-3" d="m206.38,173.71l-27.9,27.9-6.16,6.16,5.02,7.11,44.89,63.54,7.08,10.01,8.67-8.67,6.13-6.13,174.18,174.18-49.63,49.63c-5.36,5.36-8.32,12.49-8.32,20.08s2.95,14.71,8.32,20.08l26.02,26.02c4.93,4.93,11.13,8.25,17.94,9.6,6.92,1.37,13.97.62,20.37-2.19,12.05-5.29,25.85-2.69,35.16,6.62l26.58,26.58c6.99,6.99,10.85,16.29,10.85,26.18,0,3.98-.63,7.9-1.87,11.66-1.64,4.95-2.46,10.09-2.46,15.3,0,6.44,1.25,12.72,3.7,18.69,2.49,6.04,6.09,11.45,10.72,16.07l.36.36.39.32,130.39,107.04c40.76,36.47,102.91,34.76,141.61-3.93l12.28-12.28c9.82-9.82,17.43-21.28,22.62-34.07,5.02-12.37,7.57-25.43,7.57-38.83,0-25.39-9.32-49.78-26.25-68.71l-107.04-130.39-.32-.39-.36-.36c-6.43-6.43-14.49-10.95-23.32-13.07-8.86-2.13-18.11-1.74-26.74,1.11-13.38,4.43-27.89.99-37.85-8.97l-26.58-26.58c-5.99-5.99-9.29-13.95-9.29-22.42,0-4.43.9-8.72,2.66-12.75,1.89-4.32,2.86-8.91,2.86-13.65,0-9.15-3.74-18.14-10.26-24.67l-26.02-26.02c-5.36-5.36-12.49-8.32-20.08-8.32s-14.71,2.95-20.08,8.32l-49.63,49.63-174.18-174.18,6.13-6.13,8.67-8.67-10.01-7.08-63.54-44.89-7.11-5.02-6.16,6.16Zm57.41,65.63l181.48,181.48-19.68,19.68-181.48-181.48-13.43,13.43-44.89-63.54,27.9-27.9,63.54,44.89-13.43,13.43Zm302.53,184.73c-2.36,5.37-3.53,11.13-3.53,16.9,0,10.76,4.1,21.51,12.31,29.72l26.58,26.58c13.09,13.09,31.94,16.92,48.4,11.48,13.89-4.59,29.18-.89,39.52,9.46l107.19,130.56c15.88,17.67,23.77,39.85,23.77,61.98,0,23.79-9.1,47.53-27.16,65.59l-12.28,12.28c-34.86,34.86-90.9,36.35-127.57,3.4l-130.56-107.19c-7.4-7.4-11.4-17.32-11.4-27.46,0-4.04.63-8.1,1.94-12.06,1.6-4.83,2.4-9.87,2.4-14.9,0-12.12-4.62-24.24-13.87-33.49l-26.58-26.58c-12.6-12.6-31.22-15.53-46.62-8.78-9.13,4-19.8,1.8-26.85-5.25l-26.02-26.02c-3.53-3.53-5.29-8.15-5.29-12.77s1.76-9.24,5.29-12.77l49.63-49.63,3.65-3.65,26.98-26.98,3.65-3.65,49.63-49.63c7.05-7.05,18.48-7.05,25.54,0l26.02,26.02c4.69,4.69,7.24,10.98,7.24,17.36,0,3.21-.64,6.44-1.99,9.5Z"/>
      </g>
    </g>
  </g>
</svg>